<svg width="23" height="23" viewBox="0 0 23 23" fill="none" xmlns="http://www.w3.org/2000/svg">
<g clip-path="url(#clip0_14_781)">
<path d="M5.85051 6.21155L3.85789 6.36549C3.30342 6.40835 2.8096 6.69895 2.50296 7.16276L0.204913 10.6384C-0.027646 10.9902 -0.0646164 11.4303 0.105951 11.816C0.276563 12.2016 0.627175 12.4703 1.04382 12.5348L2.86831 12.8174C3.29511 10.5524 4.3168 8.29308 5.85051 6.21155Z" fill="#FFD050"/>
<path d="M10.1829 20.1316L10.4655 21.956C10.53 22.3727 10.7988 22.7233 11.1843 22.8939C11.3447 22.9648 11.5145 22.9999 11.6835 22.9999C11.9208 22.9999 12.1565 22.9308 12.3619 22.7949L15.8377 20.4969C16.3015 20.1902 16.5921 19.6964 16.6348 19.142L16.7888 17.1494C14.7072 18.6831 12.4479 19.7048 10.1829 20.1316Z" fill="#FFD050"/>
<path d="M9.49673 18.8667C9.56007 18.8667 9.62377 18.8614 9.68734 18.8508C10.6363 18.6922 11.5509 18.4249 12.4233 18.075L4.92457 10.5763C4.57473 11.4487 4.30744 12.3633 4.14878 13.3123C4.08625 13.6863 4.21171 14.0674 4.47985 14.3356L8.66402 18.5198C8.88665 18.7424 9.18713 18.8667 9.49673 18.8667Z" fill="#FFD050"/>
<path d="M21.1661 10.1973C23.0011 6.64969 23.0691 2.90072 22.9732 1.14249C22.9403 0.540047 22.46 0.0597456 21.8575 0.026908C21.5713 0.0112753 21.232 0 20.8496 0C18.8835 0 15.7727 0.297785 12.8027 1.83397C10.4424 3.0548 7.34749 5.74295 5.52151 9.27567C5.54308 9.29251 5.56415 9.31039 5.584 9.33025L13.6699 17.4161C13.6897 17.436 13.7076 17.457 13.7244 17.4786C17.2571 15.6525 19.9453 12.5576 21.1661 10.1973ZM13.3731 4.86231C14.6867 3.54876 16.8241 3.54862 18.1377 4.86231C18.7741 5.49862 19.1245 6.34472 19.1245 7.24463C19.1245 8.14454 18.7741 8.99064 18.1377 9.62695C17.481 10.2837 16.6181 10.6121 15.7554 10.6122C14.8926 10.6122 14.03 10.2838 13.3731 9.62695C12.7368 8.99064 12.3863 8.14454 12.3863 7.24463C12.3863 6.34472 12.7368 5.49862 13.3731 4.86231Z" fill="#232536"/>
<path d="M14.326 8.67403C15.1141 9.46218 16.3966 9.46223 17.1848 8.67403C17.5666 8.29219 17.7769 7.78458 17.7769 7.24462C17.7769 6.70466 17.5666 6.19704 17.1848 5.81525C16.7907 5.42115 16.2731 5.22412 15.7554 5.22412C15.2378 5.22412 14.7201 5.42115 14.326 5.81525C13.9442 6.19704 13.7339 6.70466 13.7339 7.24462C13.7339 7.78458 13.9442 8.29224 14.326 8.67403Z" fill="#232536"/>
<path d="M0.687462 18.954C0.859917 18.954 1.03237 18.8882 1.1639 18.7566L3.36386 16.5566C3.62702 16.2935 3.62702 15.8668 3.36386 15.6037C3.10076 15.3405 2.67409 15.3405 2.41093 15.6037L0.210975 17.8036C-0.0521773 18.0668 -0.0521773 18.4934 0.210975 18.7566C0.342551 18.8881 0.515006 18.954 0.687462 18.954Z" fill="#FFD050"/>
<path d="M5.38009 17.6201C5.11699 17.3569 4.69032 17.3569 4.42717 17.6201L0.197547 21.8497C-0.065605 22.1129 -0.065605 22.5395 0.197547 22.8026C0.329124 22.9342 0.501579 23 0.674034 23C0.846489 23 1.01894 22.9342 1.15048 22.8026L5.38005 18.573C5.64325 18.3099 5.64325 17.8832 5.38009 17.6201Z" fill="#FFD050"/>
<path d="M6.44318 19.6359L4.24326 21.8359C3.98011 22.099 3.98011 22.5256 4.24326 22.7888C4.37484 22.9204 4.54729 22.9862 4.7197 22.9862C4.89211 22.9862 5.06461 22.9204 5.19615 22.7888L7.3961 20.5888C7.65926 20.3257 7.65926 19.8991 7.3961 19.6359C7.133 19.3727 6.70633 19.3727 6.44318 19.6359Z" fill="#FFD050"/>
</g>
<defs>
<clipPath id="clip0_14_781">
<rect width="23" height="23" fill="white"/>
</clipPath>
</defs>
</svg>
