<svg width="48" height="48" viewBox="0 0 48 48" fill="none" xmlns="http://www.w3.org/2000/svg">
<g clip-path="url(#clip0_14_751)">
<path d="M27.5157 19.0312C27.5157 19.8065 28.1467 20.4375 28.922 20.4375H33.1024C33.0265 19.4479 32.7969 18.5021 32.4297 17.625H28.922C28.1467 17.625 27.5157 18.256 27.5157 19.0312Z" fill="#232536"/>
<path d="M18.3751 36H26.8126C27.2012 36 27.5157 35.6855 27.5157 35.2969V31.6875H28.922V27.1172L21.8911 21.8438H15.5626C15.174 21.8438 14.8595 22.1582 14.8595 22.5469C14.8595 25.0373 15.8805 27.4228 17.672 29.1428V35.2969C17.672 35.6855 17.9865 36 18.3751 36Z" fill="#FFD050"/>
<path d="M24.001 12C23.6124 12 23.2979 12.3145 23.2979 12.7031V13.4062H20.3559C20.0646 12.5896 19.2915 12 18.376 12C17.2128 12 16.2666 12.9462 16.2666 14.1094C16.2666 15.2725 17.2128 16.2188 18.376 16.2188C19.2915 16.2188 20.0646 15.6292 20.3559 14.8125H23.2979V17.625H16.1371C15.8459 16.8083 15.0727 16.2188 14.1573 16.2188C12.9941 16.2188 12.001 17.165 12.001 18.3281C12.001 19.4913 12.9941 20.4375 14.1573 20.4375C15.0727 20.4375 15.8459 19.8479 16.1371 19.0312H23.2979V21.141L30.0476 26.2033C30.2247 26.3358 30.3291 26.5445 30.3291 26.7656V31.6875H31.0323C32.1954 31.6875 33.1416 30.7413 33.1416 29.5781V26.0625H35.2979C35.5574 26.0625 35.7957 25.9197 35.9179 25.691C36.0401 25.4624 36.0264 25.185 35.8829 24.9693L33.7523 21.8438H28.9229C27.3717 21.8438 26.1104 20.5824 26.1104 19.0312C26.1104 17.4801 27.3717 16.2188 28.9229 16.2188H31.6888C30.0618 13.6865 27.2282 12 24.001 12V12Z" fill="#232536"/>
</g>
<defs>
<clipPath id="clip0_14_751">
<rect width="24" height="24" fill="white" transform="translate(12 12)"/>
</clipPath>
</defs>
</svg>
